<svg width="542" height="605" viewBox="0 0 542 605" fill="none" xmlns="http://www.w3.org/2000/svg">
<g id="illustration" clip-path="url(#clip0)">
<path id="bg" d="M542 324.62C542.011 340.87 540.413 357.082 537.231 373.018C536.743 375.473 536.214 377.917 535.644 380.35C535.311 381.813 534.961 383.271 534.594 384.723C534.358 385.666 534.114 386.609 533.862 387.552C524.805 421.662 508.531 453.437 486.137 480.733C463.742 508.028 435.749 530.21 404.043 545.782C393.638 550.9 382.879 555.265 371.849 558.845C370.172 559.389 368.488 559.918 366.795 560.43H366.787C343.641 567.405 319.592 570.938 295.416 570.916C291.949 570.916 288.531 570.837 285.162 570.68C276.041 570.282 266.958 569.275 257.972 567.664C147.546 547.733 93.4525 439.119 48.8313 324.62C47.7246 321.783 46.6368 318.966 45.5679 316.167C45.3075 315.476 45.0471 314.785 44.7867 314.094C-73.8993 0.624045 54.8128 -78.7025 295.416 78.325C409.422 152.726 542 188.597 542 324.62Z" fill="#464646"/>
<g id="bglines">
<path id="Vector" d="M199.009 547.301L197.881 546.13C198.105 545.915 220.306 524.201 228.766 483.624C236.58 446.154 233.941 384.462 176.996 303.358C153.202 269.47 136.977 237.453 128.769 208.196C122.063 184.29 120.643 162.067 124.549 142.144C132.271 102.753 158.518 85.4601 158.782 85.2902L159.664 86.6564C159.405 86.8231 133.707 103.791 126.136 142.506C117.45 186.924 135.011 240.729 178.328 302.424C203.623 338.451 220.461 373.729 228.375 407.278C234.715 434.154 235.375 459.987 230.338 484.06C221.753 525.09 199.236 547.084 199.009 547.301Z" fill="black"/>
<path id="Vector_2" d="M159.223 171.712C142.246 171.712 125.649 166.683 111.533 157.262C97.4172 147.841 86.415 134.451 79.918 118.784C73.421 103.118 71.7211 85.8786 75.0332 69.247C78.3452 52.6154 86.5206 37.3383 98.5253 25.3475C110.53 13.3568 125.825 5.19098 142.476 1.88271C159.127 -1.42556 176.387 0.272311 192.072 6.7616C207.757 13.2509 221.163 24.2401 230.595 38.3397C240.027 52.4393 245.061 69.0159 245.062 85.9733C245.036 108.705 235.984 130.497 219.892 146.571C203.799 162.644 181.981 171.686 159.223 171.712V171.712ZM159.223 1.86095C142.567 1.86091 126.286 6.794 112.438 16.0364C98.589 25.2788 87.7954 38.4154 81.4217 53.7849C75.0479 69.1545 73.3802 86.0667 76.6295 102.383C79.8788 118.699 87.8992 133.687 99.6763 145.45C111.453 157.213 126.458 165.224 142.794 168.47C159.129 171.715 176.061 170.05 191.449 163.683C206.837 157.317 219.989 146.536 229.242 132.704C238.495 118.872 243.434 102.609 243.434 85.9733C243.409 63.6731 234.528 42.2934 218.741 26.5248C202.954 10.7561 181.549 1.88622 159.223 1.86095V1.86095Z" fill="black"/>
<path id="Vector_3" d="M66.9222 281.141C59.016 292.318 51.8814 304.02 45.5679 316.167C45.3074 315.476 45.047 314.785 44.7866 314.094C50.9833 302.363 57.9314 291.043 65.5876 280.206C99.9711 231.231 113.912 188.54 107.027 153.303C101.029 122.609 80.6675 109.157 80.464 109.027L81.343 107.661C81.5546 107.799 102.469 121.577 108.614 152.937C115.612 188.638 101.582 231.768 66.9222 281.141Z" fill="#464646"/>
</g>
<g id="bgdots">
<path id="Vector_4" d="M144.369 176.015C179.163 176.015 207.37 147.842 207.37 113.088C207.37 78.3347 179.163 50.1615 144.369 50.1615C109.575 50.1615 81.3687 78.3347 81.3687 113.088C81.3687 147.842 109.575 176.015 144.369 176.015Z" fill="black"/>
<path id="Vector_5" d="M207.37 308.007C236.223 308.007 259.614 284.644 259.614 255.824C259.614 227.004 236.223 203.641 207.37 203.641C178.516 203.641 155.125 227.004 155.125 255.824C155.125 284.644 178.516 308.007 207.37 308.007Z" fill="black"/>
<path id="Vector_6" d="M180.735 489.113C209.589 489.113 232.98 465.75 232.98 436.93C232.98 408.11 209.589 384.747 180.735 384.747C151.882 384.747 128.491 408.11 128.491 436.93C128.491 465.75 151.882 489.113 180.735 489.113Z" fill="black"/>
<path id="Vector_7" d="M367.031 62.8807C373.773 62.8807 379.238 57.4218 379.238 50.6879C379.238 43.9539 373.773 38.495 367.031 38.495C360.289 38.495 354.824 43.9539 354.824 50.6879C354.824 57.4218 360.289 62.8807 367.031 62.8807Z" fill="black"/>
</g>
<g id="unicorn">
<path id="Vector_8" d="M534.594 384.723C534.049 381.91 533.488 379.136 532.91 376.399C532.909 376.399 532.908 376.399 532.907 376.399C532.906 376.398 532.905 376.398 532.904 376.397C532.903 376.396 532.903 376.395 532.902 376.394C532.902 376.393 532.902 376.392 532.902 376.391C525.594 341.755 515.747 313.354 504.085 290.188L473.184 279.572L496.476 276.247C487.06 260.291 476.684 247.22 465.657 236.612L408.902 243.091L451.74 224.753C373.012 165.601 269.797 213.113 241.672 228.045C237.814 230.085 235.373 231.524 234.592 231.987C234.583 231.987 234.583 231.987 234.575 231.995C234.404 232.101 234.323 232.15 234.323 232.15L250.29 240.433H250.298L533.862 387.552L534.594 384.723Z" fill="#B13D36"/>
<path id="Vector_9" d="M534.594 384.723C534.961 383.268 535.31 381.81 535.644 380.35C534.814 379.139 533.903 377.814 532.91 376.399C532.909 376.399 532.908 376.399 532.907 376.399C532.906 376.398 532.905 376.398 532.904 376.397C532.903 376.396 532.903 376.395 532.902 376.394C532.902 376.393 532.902 376.392 532.902 376.391C500.203 329.693 380.345 177.103 242.282 228.898H242.274C239.719 229.858 237.158 230.887 234.592 231.987C234.583 231.987 234.583 231.987 234.575 231.995C232.24 232.995 229.901 234.057 227.56 235.182C226.372 235.743 225.192 236.328 224.004 236.921C222.97 237.442 221.945 237.97 220.911 238.515C220.911 238.515 215.036 239.986 208.452 245.529C195.52 256.438 179.847 283.092 200.615 345.324C200.615 345.324 219.056 396.883 209.835 420.83C200.615 444.76 257.785 472.381 274.362 420.83C290.956 369.262 296.498 319.54 296.498 319.54C296.498 319.54 315.574 359.687 313.694 399.948C312.921 416.449 314.394 432.966 318.845 448.857C319.301 450.524 319.797 452.19 320.294 453.881C326.292 473.999 335.65 499.88 349.436 524.908C355.931 536.834 363.429 548.187 371.849 558.845C382.879 555.265 393.638 550.9 404.043 545.782C435.748 530.21 463.742 508.028 486.137 480.733C508.531 453.437 524.805 421.662 533.862 387.552L534.594 384.723Z" fill="#282828"/>
<path id="Vector_10" d="M226.435 256.93L219.06 196.161L250.402 240.356L226.435 256.93Z" fill="#282828"/>
<path id="Vector_11" d="M210.364 261.308L202.989 200.538L234.332 244.734L210.364 261.308Z" fill="#282828"/>
<path id="Vector_12" d="M194.311 317.935L115.563 215.697L195.317 287.229L194.311 317.935Z" fill="#B13D36"/>
</g>
</g>
<defs>
<clipPath id="clip0">
<rect width="542" height="605" fill="white"/>
</clipPath>
</defs>
</svg>
